<?xml version="1.0" encoding="UTF-8" standalone="no"?>
<svg
   xmlns:dc="http://purl.org/dc/elements/1.1/"
   xmlns:cc="http://creativecommons.org/ns#"
   xmlns:rdf="http://www.w3.org/1999/02/22-rdf-syntax-ns#"
   xmlns:svg="http://www.w3.org/2000/svg"
   xmlns="http://www.w3.org/2000/svg"
   xmlns:sodipodi="http://sodipodi.sourceforge.net/DTD/sodipodi-0.dtd"
   xmlns:inkscape="http://www.inkscape.org/namespaces/inkscape"
   width="200"
   height="200"
   fill="#620000"
   version="1.1"
   x="0px"
   y="0px"
   viewBox="0 0 100 100"
   enable-background="new 0 0 100 100"
   xml:space="preserve"
   id="svg3770"
   sodipodi:docname="apple.svg"
   inkscape:version="0.92.1 r15371"
   inkscape:export-filename="/home/amnesia/projects/eden/apple.png"
   inkscape:export-xdpi="491.29999"
   inkscape:export-ydpi="491.29999"><metadata
     id="metadata3776"><rdf:RDF><cc:Work
         rdf:about=""><dc:format>image/svg+xml</dc:format><dc:type
           rdf:resource="http://purl.org/dc/dcmitype/StillImage" /></cc:Work></rdf:RDF></metadata><defs
     id="defs3774" /><sodipodi:namedview
     pagecolor="#ffffff"
     bordercolor="#666666"
     borderopacity="1"
     objecttolerance="10"
     gridtolerance="10"
     guidetolerance="10"
     inkscape:pageopacity="0"
     inkscape:pageshadow="2"
     inkscape:window-width="1596"
     inkscape:window-height="852"
     id="namedview3772"
     showgrid="false"
     inkscape:zoom="1.1826361"
     inkscape:cx="29.080887"
     inkscape:cy="81.760314"
     inkscape:window-x="0"
     inkscape:window-y="46"
     inkscape:window-maximized="0"
     inkscape:current-layer="svg3770" /><path
     style="fill:#ffcda0;fill-opacity:1;stroke:none;stroke-width:0.21139216"
     d="m 66.356445,33.646484 c -3.270595,0.475673 -6.51827,1.082979 -9.850585,1.00586 -1.886415,0.520668 -4.052955,1.73417 -4.844725,3.569335 0.06608,2.553939 3.6211,2.817154 4.39941,5.105469 2.83269,5.592647 4.076525,11.860332 5.246095,17.965822 0.29695,4.48595 1.0026,9.08556 0.908205,13.52539 -0.9798,2.63957 0.10847,5.65339 -0.794795,8.391575 0.08532,2.096075 -0.880225,3.991355 -1.043095,5.99612 1.66945,3.00676 5.71441,1.68426 8.47363,1.301755 5.70864,-1.64483 8.067963,-6.177534 10.231398,-10.956564 C 80.978748,74.458036 82.73065,67.31987 82.140625,61.723635 82.163335,55.06769 82.79117,47.79605 78.693,42.052107 76.2398,38.371581 72.29699,35.876315 68.407225,33.944336 c -0.660195,-0.21599 -1.35703,-0.309542 -2.05078,-0.297852 z"
     id="path4613"
     inkscape:connector-curvature="0"
     sodipodi:nodetypes="cccccccccccccc" /><path
     style="fill:#886041;fill-opacity:1;stroke:none;stroke-width:0.29895365"
     d="m 59.749025,9.236328 c -1.877455,1.19694 -1.603175,4.406429 -2.79297,6.307618 -1.22784,3.417088 -2.747845,6.836853 -2.55371,10.559569 3.416025,-4.046384 6.08331,-8.968246 7.26953,-14.14746 0.18728,-1.210463 -0.54602,-2.775762 -1.92285,-2.719727 z"
     id="path4605"
     inkscape:connector-curvature="0" /><path
     style="fill:#00c805;fill-opacity:1;stroke:none;stroke-width:0.29895365"
     d="m 38.402344,18.311523 c 0.232047,5.757472 -0.01534,12.305452 4.286132,16.795899 1.08521,1.959985 5.338299,5.609395 6.289063,1.725586 0.469391,-5.227515 -0.415404,-10.673626 -2.342774,-15.530274 -2.08997,-2.374915 -5.085396,-4.057191 -8.291015,-4.24707 0.01953,0.41862 0.03906,0.837239 0.05859,1.255859 z"
     id="path4603"
     inkscape:connector-curvature="0" /><path
     style="fill:#f0473b;fill-opacity:1;stroke:none;stroke-width:0.29895365"
     d="m 37.130859,36.768554 c -4.112817,0.502156 -9.171185,-0.461479 -12.267578,2.958985 -3.423037,3.345314 -6.824759,7.681646 -6.026032,12.767141 0.220694,4.170925 -0.683881,8.59568 0.541657,12.637155 0.836064,0.870645 1.98903,0.38006 1.282227,2.13379 -0.568921,3.371895 0.506576,6.8624 2.952148,9.18457 3.69142,4.90233 6.220241,11.54055 12.557774,13.639195 4.489019,2.35972 9.671885,2.86237 14.59457,1.77975 4.24185,-0.631685 9.39278,-2.6289 9.9541,-7.521485 1.47601,-11.04238 -0.0089,-22.28637 -2.03706,-33.168235 C 57.9113,46.540385 55.465895,41.616602 51.05176,39.547851 46.943362,39.025088 43.246462,36.562463 38.973633,36.77832 c -0.614248,-0.0191 -1.228359,-0.01945 -1.842774,-0.0098 z m -8.647461,42.142581 c -0.04701,-0.02026 0.04766,-0.166905 0,0 z m 9.586914,3.71289 c 0.768315,0.48337 1.127848,1.63101 1.675782,2.13281 -0.919434,0.19203 -1.032782,-1.91995 -1.675782,-2.13281 z m 5.999024,0.899415 c 0.514343,0.786995 0.469816,2.97118 0.03418,1.069335 0.05015,-0.16779 -0.483921,-1.27463 -0.03418,-1.069335 z"
     id="path4599"
     inkscape:connector-curvature="0" /><g
     id="g3768"><g
       id="g3766"><path
         d="M60.946,11.376c-0.077-0.417-0.402-0.789-0.93-1.746c-1.7,5.289-3.988,9.77-4.96,14.746    c2.282-3.699,4.325-7.505,5.756-11.611C60.961,12.332,61.031,11.817,60.946,11.376z"
         id="path3748"
         fill="none" /><path
         d="M44.816,36.324c0.79,0.841,1.716,1.571,2.824,1.61c0.27-0.236,0.414-0.3,0.427-0.382    c0.722-5.029-0.378-9.871-1.56-14.696c-0.134-0.544-0.478-1.135-0.903-1.488c-1.266-1.047-2.573-2.068-3.968-2.926    c-0.519-0.32-1.331-0.163-2.172-0.235c-0.062,0.971-0.178,1.782-0.149,2.586c0.05,1.418,0.293,2.834,0.275,4.25    C39.524,29.657,41.843,33.144,44.816,36.324z"
         id="path3750"
         fill="none" /><path
         d="M77.462,41.731c-1.972-2.776-4.981-4.299-7.672-6.162c-1.557-1.08-3.493-1.393-5.467-0.785    c-1.127,0.346-2.308,0.547-3.479,0.711c-2.601,0.366-4.62,1.85-6.463,3.509c-1.202,1.08-1.446,2.669-0.994,4.279    c0.159,0.564,0.48,1.133,0.451,1.686c-0.025,0.502-0.426,0.982-0.687,1.524c-0.497-0.236-0.8-0.405-1.121-0.529    c-1.744-0.661-2.468-2.48-3.939-3.458c-4.359-2.888-9.093-4.521-14.366-4.579c-5.442-0.062-6.736,0.331-10.245,4.381    c-2.107,2.433-3.839,5.232-3.919,8.57c-0.1,4.149,0.099,8.306,0.198,12.459c0.013,0.542,0.201,1.077,0.318,1.654    c0.612-0.221,1.047-0.378,1.622-0.586c-0.102,1.681-0.242,3.306-0.296,4.935c-0.061,1.947,0.363,3.868,1.752,5.221    c1.307,1.274,2.237,2.726,3.162,4.247c1.29,2.128,2.63,4.239,4.091,6.252c0.676,0.933,1.63,1.695,2.56,2.404    c2.108,1.611,4.668,2.273,7.09,3.234c1.914,0.758,3.844,1.06,5.906,0.972c4.026-0.169,8.059-0.223,12.091-0.273    c2.37-0.031,4.61-0.252,6.931-1.098c4.911-1.794,8.751-4.615,11.112-9.324c0.316-0.634,0.593-1.294,0.835-1.962    c1.202-3.347,2.35-6.717,3.599-10.049c0.513-1.365,0.708-2.733,0.7-4.175c-0.015-3.681,0.048-7.359,0.026-11.041    c-0.007-1.179-0.093-2.373-0.291-3.537C80.441,47.128,79.28,44.29,77.462,41.731z M25.824,74.186    c-0.954-2.476,0.657-4.503,0.961-6.705c1.15-0.128,1.185,0.635,1.162,1.109c-0.101,1.998-0.76,3.871-1.262,5.76    C26.244,74.272,25.867,74.294,25.824,74.186z M29.42,80.495c-1.014-0.555-1.621-0.723-1.629-0.92    c-0.059-1.282-0.113-2.585,0.073-3.847c0.252-1.712,0.672-2.419,1.755-3.811C30.482,74.762,28.47,77.226,29.42,80.495z     M38.476,85.747c-0.206-2.431-1.758-3.774-3.836-4.945c-0.313,0.37-0.651,0.77-1.084,1.283c0-0.857,0-1.604,0-2.557    c2.071,0.537,3.648,1.536,5.225,2.495c0.453,0.276,0.92,0.847,1.006,1.347c0.192,1.135,1.19,0.95,1.969,1.436    C40.757,85.962,39.706,85.735,38.476,85.747z M43.649,86.137c-0.347-0.946-0.512-1.96-0.808-3.166    c0.49-0.155,1.018-0.483,1.489-0.415c0.31,0.045,0.685,0.633,0.77,1.033c0.186,0.892,0.207,1.819,0.297,2.771    C44.406,86.982,43.857,86.707,43.649,86.137z M52.078,86.374c-0.6-0.196-0.963-0.688-0.786-1.34    c0.06-0.219,0.454-0.347,0.694-0.517c0.318,0.46,0.637,0.921,1.039,1.505C52.62,86.184,52.294,86.445,52.078,86.374z"
         id="path3752"
         fill="none" /><path
         d="M 84.559155,48.353782 C 84.782155,43.931782 83.183,44.123 81.602,40.146 c -0.123,-0.31 -0.421,-0.551 -0.657,-0.847 -0.597,0.048 -1.165,0.095 -1.909,0.157 -1.532,-1.503 -3.164,-3.057 -4.735,-4.665 -3.112,-3.181 -6.84,-4.052 -11.096,-3.07 -0.92,0.212 -1.843,0.527 -2.769,0.548 -1.247,0.027 -2.296,0.484 -3.367,1.009 -0.367,0.18 -0.796,0.231 -1.556,0.442 0.184,-0.912 0.261,-1.466 0.406,-2.001 1.049,-3.801 2.932,-7.246 4.606,-10.783 1.114,-2.356 2.17,-4.745 3.121,-7.171 0.736,-1.876 0.521,-3.756 -0.681,-5.416 C 62.143,7.209 61.207,6.154 60.269,5 58.447,5.575 58.242,6.841 57.817,7.912 55.68,13.276 53.57,18.649 51.421,24.095 50.246,23.64 49.972,22.54 49.444,21.659 49.082,21.06 48.896,20.26 48.386,19.862 c -1.958,-1.53 -3.95,-3.038 -6.058,-4.34 -0.967,-0.598 -2.218,-0.837 -3.373,-1.003 -1.514,-0.218 -2.112,0.403 -2.213,1.946 -0.046,0.706 -0.125,1.412 -0.158,2.122 -0.247,5.355 -0.339,10.689 2.492,15.555 0.044,0.073 -0.043,0.226 -0.114,0.551 -0.525,-0.039 -1.081,-0.095 -1.638,-0.121 -2.371,-0.102 -4.74,-0.217 -7.111,-0.282 -2.363,-0.065 -4.326,0.878 -6.196,2.298 -3.412,2.594 -5.769,5.898 -7.377,9.835 -0.641,1.569 -1.073,3.104 -1.022,4.815 0.08,2.729 -0.032,5.462 0.078,8.189 0.097,2.367 0.894873,8.159275 1.376873,10.461275 1.568,7.479 3.462823,5.092352 9.451656,16.850156 0.752,1.162 1.625,2.316089 2.898,2.781089 1.882,0.686 6.456402,2.957137 8.274402,3.788137 2.325,1.059 4.855697,2.00548 7.360697,2.05448 3.205,0.065 2.497245,-0.351784 4.75198,-0.867264 3.562137,-1.263353 4.221607,-2.056472 5.863607,-0.688473 0.306,0.255 0.692785,1.208599 1.150785,1.167599 1.881,-0.162 2.686238,-1.645864 4.562238,-1.865864 0.585,-0.068 3.136907,0.760016 3.617907,0.925016 1.703,0.06083 5.756298,-0.320891 7.115298,-1.010891 2.657,-1.351 3.912297,-3.823367 6.138297,-5.811367 0.902,-0.805 2.599071,-6.136032 3.018071,-7.300032 1.35852,-5.769481 0.422767,-5.821196 2.357767,-11.047196 0.585,-1.58 1.848071,-7.456757 1.799071,-9.149757 -0.116,-4.032 -0.480587,-6.516005 -0.275587,-10.538005 z M 60.016,9.63 c 0.528,0.958 0.853,1.329 0.93,1.746 0.085,0.441 0.015,0.957 -0.134,1.389 -1.431,4.106 -3.474,7.912 -5.756,11.611 0.972,-4.976 3.26,-9.458 4.96,-14.746 z m -20.551,8.576 c 0.841,0.072 1.652,-0.085 2.172,0.235 1.395,0.858 2.702,1.879 3.968,2.926 0.425,0.353 0.769,0.944 0.903,1.488 1.183,4.825 2.283,9.667 1.56,14.696 -0.013,0.082 -0.157,0.146 -0.427,0.382 -1.108,-0.039 -2.034,-0.769 -2.824,-1.61 -2.974,-3.18 -5.292,-6.667 -5.226,-11.282 0.018,-1.415 -0.225,-2.831 -0.275,-4.25 -0.029,-0.803 0.087,-1.614 0.149,-2.585 z m 28.782744,71.694364 c -1.567707,-0.333513 -2.488338,0.525119 -3.44597,0.109124 -1.87684,0.919757 -4.703863,-1.093339 -3.384861,-1.862575 0.13541,-1.124893 0.800576,-0.872559 0.613867,-1.913368 -0.186709,-1.040808 0.838827,-5.92716 0.904735,-7.147284 -0.793331,-3.083664 -0.184586,-3.432934 0.444258,-4.396113 -0.428116,-1.597357 -0.817154,-12.682347 -1.285006,-14.050963 -0.34134,-4.299186 0.289613,0.40935 -0.832102,-3.868607 -1.358861,-5.758758 -0.890229,-4.946116 -2.362613,-9.306125 -0.736192,-2.180005 -2.244926,-5.10121 -2.951029,-5.994959 -0.706102,-0.89375 -2.364825,-1.5697 -3.281561,-2.387584 -0.452,-1.61 1.034707,-1.690498 2.236707,-2.770498 1.843,-1.659 3.338831,-0.452417 5.939831,-0.818417 1.17,-0.164 2.352,-0.365 3.479,-0.711 1.974,-0.607 3.91,-0.295 5.467,0.785 2.691,1.863 5.7,3.386 7.672,6.162 1.818,2.559 3.454632,3.970103 3.980632,7.052103 0.198,1.164 0.285,2.358 0.291,3.537 0.022,3.683 0.01185,6.622127 0.02685,10.302127 0.008,1.442 -1.086417,5.029618 -1.598417,6.394618 -1.25,3.331 -1.075798,7.071936 -2.277798,10.418936 -0.242,0.667 -1.564338,3.719629 -1.881338,4.353629 -2.361,4.709 -3.035273,3.953515 -6.270905,5.45844 M 54.558237,90.162367 C 51.688894,90.686998 49.99,91.499 45.964,91.668 c -2.062,0.088 -3.991,-0.214 -5.906,-0.972 -2.421,-0.961 -4.982,-1.623 -7.09,-3.234 -0.929,-0.709 -1.883,-1.471 -2.56,-2.404 -1.461,-2.013 -2.8,-4.124 -4.091,-6.252 -0.925,-1.522 -1.855,-2.974 -3.162,-4.247 -1.389,-1.352 -1.813,-3.274 -1.752,-5.221 0.054,-1.63 0.194,-3.254 0.296,-4.935 -0.575,0.208 -1.01,0.365 -1.622,0.586 -0.117,-0.578 -0.306,-1.112 -0.318,-1.654 -0.1,-4.153 -0.298,-8.31 -0.198,-12.459 0.08,-3.337 1.812,-6.137 3.919,-8.57 3.51,-4.05 4.803,-4.443 10.245,-4.381 4.82457,-0.764123 9.831877,-0.406987 14.564569,2.107321 1.769953,0.305354 2.656253,-0.499913 5.060076,2.138354 1.902729,1.356868 3.918638,5.013238 4.440729,8.801759 0.52209,3.788522 0.881052,3.590342 1.409118,8.26773 0.528065,4.677389 1.889071,13.928321 1.155987,19.166092 0.46273,4.415647 -0.966599,8.320146 -2.374942,9.911739"
         id="path3754"
         inkscape:connector-curvature="0"
         sodipodi:nodetypes="ccccccccccccccccccccccccccccccccccccccccccccccccccccccccccccccccccccccscccccccccccccccccccccccccccccccccc" /><path
         d="M39.787,83.369c-0.086-0.5-0.553-1.071-1.006-1.347c-1.577-0.959-3.154-1.958-5.225-2.495c0,0.953,0,1.7,0,2.557    c0.433-0.513,0.771-0.912,1.084-1.283c2.078,1.171,3.63,2.514,3.836,4.945c1.229-0.011,2.281,0.216,3.279-0.942    C40.977,84.319,39.979,84.504,39.787,83.369z"
         id="path3756" /><path
         d="M29.619,71.917c-1.083,1.392-1.503,2.099-1.755,3.811c-0.186,1.262-0.132,2.565-0.073,3.847    c0.008,0.197,0.615,0.365,1.629,0.92C28.47,77.226,30.482,74.762,29.619,71.917z"
         id="path3758" /><path
         d="M26.785,67.481c-0.304,2.202-1.914,4.228-0.961,6.705c0.043,0.108,0.42,0.086,0.86,0.164    c0.502-1.889,1.162-3.763,1.262-5.76C27.97,68.116,27.935,67.354,26.785,67.481z"
         id="path3760" /><path
         d="M44.33,82.556c-0.471-0.068-0.999,0.26-1.489,0.415c0.296,1.206,0.46,2.22,0.808,3.166    c0.208,0.571,0.757,0.846,1.748,0.223c-0.09-0.952-0.111-1.879-0.297-2.771C45.015,83.189,44.64,82.601,44.33,82.556z"
         id="path3762" /><path
         d="M51.292,85.034c-0.177,0.652,0.187,1.143,0.786,1.34c0.216,0.072,0.542-0.19,0.946-0.351    c-0.402-0.584-0.721-1.045-1.039-1.505C51.745,84.687,51.352,84.815,51.292,85.034z"
         id="path3764" /></g></g><path
     style="fill:#553b3d;fill-opacity:1;stroke:none;stroke-width:0.50000000000000000px;stroke-linecap:butt;stroke-linejoin:miter;stroke-opacity:1"
     d="m 58.278184,42.584318 c 4.023205,-3.759696 3.747963,-2.392963 4.996855,-2.823482 4.480139,-1.204178 6.297891,1.421223 7.646307,1.976357 1.165862,-0.161059 3.852018,2.045528 4.370403,4.16365 0.395353,1.61541 -1.516864,3.699214 -1.703266,3.905441 -0.849598,0.06021 -2.452629,-0.37839 -2.676657,-1.471775 0.02536,-0.587883 0.175076,-1.375119 0.185967,-1.907368 0.02967,-1.450277 -0.292339,-1.678468 -1.802557,-1.843021 -1.240205,-0.518 -1.599797,-0.909136 -2.838951,-0.885715 -1.450556,0.02742 -2.26553,-0.451437 -3.033394,0.441496 -3.102795,-0.608722 -1.567967,0.0843 -3.461987,2.067874 -0.616529,-0.162231 -1.452212,-2.592679 -1.68272,-3.623457 z"
     id="path3780"
     inkscape:connector-curvature="0"
     sodipodi:nodetypes="cccsccscsccc" /><path
     style="fill:#553b3d;fill-opacity:1;stroke:none;stroke-width:0.50000000000000000px;stroke-linecap:butt;stroke-linejoin:miter;stroke-opacity:1"
     d="m 69.430787,56.176087 -0.140404,-1.593599 c 0.06871,-1.50683 0.329521,-1.924291 1.377349,-1.47288 2.958111,0.391747 2.163934,0.456399 3.253318,1.51666 0.93644,0.681349 1.312738,0.991837 1.106831,2.887426 -0.07185,0.661447 -0.198198,1.915023 -0.482166,3.092423 0.244512,1.441639 -0.690493,1.840265 -0.695646,2.399922 -0.853662,2.193299 -1.524077,0.63409 -2.21146,1.580288 -0.230043,0.316661 -0.990469,0.700421 -1.231818,1.10187 -0.207381,0.617693 0.719035,1.816771 1.804344,2.335027 0.595047,-0.672817 1.909344,0.496638 2.770633,-1.192704 0.520799,-0.847066 1.49224,-1.332777 2.203681,-4.181594 0.370649,-1.275628 -0.08081,-1.626033 0.412166,-3.514906 0.453414,-2.239729 -0.06925,-2.957748 0.220459,-5.203844 -0.607852,-0.493271 0.01522,-1.05316 -1.463811,-2.47278 -1.68563,-0.808945 -1.131854,-0.764751 -5.829596,-1.307922 -1.440969,0.341987 -3.269879,0.584245 -3.662185,1.195815 0.03815,1.266089 -0.59099,3.483442 0.167838,5.016268 0.460156,0.929513 0.252535,1.699722 0.641464,3.537981 0.417188,0.146061 1.900479,0.295549 2.604574,-1.662378 z"
     id="path3782"
     inkscape:connector-curvature="0"
     sodipodi:nodetypes="ccccsccscccccccccsccc" /><path
     style="fill:#553b3d;fill-opacity:1;stroke:none;stroke-width:0.50000000000000000px;stroke-linecap:butt;stroke-linejoin:miter;stroke-opacity:1"
     d="m 68.91513,45.523205 c -0.718606,-0.297371 -1.722068,-0.583732 -2.541061,-0.669633 -1.310758,-0.137479 -2.426236,-0.372489 -3.684116,0.589584 -1.12507,0.264056 -1.406307,1.342918 -2.140212,2.584887 0.448431,0.896862 0.303444,2.927709 1.15048,3.027361 0.720479,-0.372469 2.347284,-0.789643 1.932539,-1.390939 -0.311512,-0.45163 -0.355339,0.157344 -0.133508,-1.520102 0.426506,-0.308433 1.011993,-1.240827 1.595098,-1.252223 0.558159,-0.01091 -0.105794,1.945403 0.496023,2.134059 0.477706,9.79e-4 0.595616,-0.150632 1.148199,-0.217592 0.463971,-0.05626 0.581979,0.32314 0.895387,0.937821 0.311306,0.186783 2.334898,-0.351033 2.432228,-1.088543 0.08129,-0.615998 -0.619639,-2.951841 -1.151057,-3.134635 z"
     id="path3784"
     inkscape:connector-curvature="0"
     sodipodi:nodetypes="cscccscscscscc" /><path
     style="fill:#553b3d;fill-opacity:1;stroke:none;stroke-width:0.50000000000000000px;stroke-linecap:butt;stroke-linejoin:miter;stroke-opacity:1"
     d="m 62.378175,51.793723 c 0.593233,0.04509 2.318529,-2.324001 3.000159,-0.776143 0.473343,0.911007 0.243083,2.010147 0.267995,2.359573 0.0624,1.140059 0.145255,2.040582 0.0091,2.684173 0.250685,0.636473 0.408327,1.593153 0.45052,2.429172 0.05371,1.064263 -0.456913,1.94573 0.344402,2.488085 0.227007,0.667477 0.803875,1.08825 3.807903,0.03206 1.119655,-1.499931 0.993061,-2.289779 1.132342,-3.080854 0.102394,-1.906133 -1.412931,-1.643099 -0.765222,-3.024857 0.06638,-1.117518 2.69543,-0.03555 2.766283,1.363348 0.03223,0.636245 0.795363,2.490383 0.06597,2.89359 0.123161,1.503103 -0.304078,0.522347 -0.253619,2.712474 -0.634369,1.138727 -2.292753,1.749647 -2.828793,2.101745 -1.401295,0.554459 -2.37559,0.895149 -4.783257,0.597906 -0.656347,-0.22142 -1.122817,-1.703311 -1.681613,-2.80269 -0.324514,-1.734821 -0.66748,-3.21132 -0.89686,-6.278027 -0.282345,-1.413802 -0.231136,-2.057385 -1.083707,-3.101647 z"
     id="path3786"
     inkscape:connector-curvature="0"
     sodipodi:nodetypes="ccccsccccscccccccc" /><path
     style="fill:#553b3d;fill-opacity:1;stroke:none;stroke-width:0.50000000000000000px;stroke-linecap:butt;stroke-linejoin:miter;stroke-opacity:1"
     d="m 63.776413,84.672215 c 0.19662,0.729881 0.131075,0.515019 1.208638,1.538547 0.728902,0.05241 1.965256,-0.66436 3.730508,-1.300412 0.963183,-0.327569 3.050549,-1.663902 4.482106,-3.864966 0.897519,-1.773991 0.323153,-1.067088 0.753341,-3.744432 0.193344,-1.71351 0.07896,-0.983141 -0.606977,-2.641493 -1.003347,0.67511 -3.600288,-0.189058 -4.801389,-0.347585 -0.867462,0.169574 -0.436474,2.018462 -0.412163,2.881637 0.201924,0.520549 2.217925,-0.776092 2.847572,0.213594 0.598508,1.747331 0.280096,1.327901 0.06833,2.174922 -0.593276,1.050282 -0.129396,1.600247 -1.962431,2.36443 -0.592647,0.767334 -1.217904,0.483205 -1.793832,0.62801 -0.650233,0.163488 -1.079042,-0.160552 -1.485593,-0.501981 -0.573201,-0.784234 0.399425,-1.046654 -0.279261,-1.382201 -0.668594,-0.318463 -0.817387,-0.301554 -1.207541,-0.248764 -0.623255,0.925519 -0.590666,3.593437 -0.541308,4.230694 z"
     id="path3788"
     inkscape:connector-curvature="0"
     sodipodi:nodetypes="cccccccccccscccc" /><path
     style="fill:#553b3d;fill-opacity:1;stroke:none;stroke-width:0.50000000000000000px;stroke-linecap:butt;stroke-linejoin:miter;stroke-opacity:1"
     d="m 68.960467,65.442095 c -3.559925,0.305934 -3.546194,-0.497712 -4.305425,-0.462812 -0.92296,0.984913 0.02172,4.17981 -0.09132,5.524691 0.06276,0.353828 0.172792,0.830674 1.481947,1.855637 -1.892098,1.619423 -1.50804,2.976629 -1.706162,5.368342 0.235915,1.351297 0.509951,1.520876 1.793721,2.165859 0.49187,0.212698 0.341335,1.108769 1.03383,1.344664 0.675403,0.230073 1.824023,-0.883211 2.303753,-0.970974 0.118713,-0.374234 1.401692,-0.674797 0.422786,-2.296554 -1.52153,-0.06426 -2.122712,1.121388 -2.907288,-0.725495 -0.443121,-1.48039 0.0498,-1.354305 -0.07318,-2.220262 0.0096,-0.78837 0.305633,-0.900537 0.731187,-1.533344 0.764296,-1.136523 1.20639,-0.21569 1.843535,-1.632415 0.163438,-1.089292 -1.349266,-0.873951 -2.135356,-1.583432 0.0217,-0.565962 -1.728846,-1.066814 -0.97581,-1.81561 0.612461,0.07474 1.699498,0.912792 2.787209,1.697547 1.06063,0.978055 0.971072,-0.05107 1.980568,1.147824 0.41294,0.957779 -0.653662,1.112389 -0.736117,1.77293 0.236892,0.772138 0.455929,0.819244 1.771835,0.806645 0.463464,-0.886982 1.734818,-1.924231 1.625465,-2.238396 0.0072,-1.243912 -0.121718,-2.729797 -0.700947,-3.094134 -1.326277,-0.146349 -2.335361,-0.846763 -2.822384,-1.493214 -0.751752,-0.235647 -0.837377,-1.827324 -1.321845,-1.617497 z"
     id="path3790"
     inkscape:connector-curvature="0"
     sodipodi:nodetypes="ccccccsccccscccccccccccc" /></svg>